<svg width="48" height="48" viewBox="0 0 48 48" fill="none" xmlns="http://www.w3.org/2000/svg">
<path fill-rule="evenodd" clip-rule="evenodd" d="M24.1942 17.7121C24.5603 18.0782 24.5603 18.6718 24.1942 19.0379L19.2321 24L24.1942 28.9621C24.5603 29.3282 24.5603 29.9218 24.1942 30.2879C23.828 30.654 23.2345 30.654 22.8683 30.2879L17.2433 24.6629C16.8772 24.2968 16.8772 23.7032 17.2433 23.3371L22.8683 17.7121C23.2345 17.346 23.828 17.346 24.1942 17.7121Z" fill="#0D0F0D"/>
<path fill-rule="evenodd" clip-rule="evenodd" d="M17.75 24C17.75 23.4822 18.1697 23.0625 18.6875 23.0625H30.0938C30.6115 23.0625 31.0312 23.4822 31.0312 24C31.0312 24.5178 30.6115 24.9375 30.0938 24.9375H18.6875C18.1697 24.9375 17.75 24.5178 17.75 24Z" fill="#0D0F0D"/>
</svg>
