<svg width="32" height="32" viewBox="0 0 32 32" fill="none" xmlns="http://www.w3.org/2000/svg">
<path d="M16 17.625C16.8975 17.625 17.625 16.8975 17.625 16C17.625 15.1025 16.8975 14.375 16 14.375C15.1025 14.375 14.375 15.1025 14.375 16C14.375 16.8975 15.1025 17.625 16 17.625Z" fill="#0D0F0D"/>
<path d="M21.625 17.625C22.5225 17.625 23.25 16.8975 23.25 16C23.25 15.1025 22.5225 14.375 21.625 14.375C20.7275 14.375 20 15.1025 20 16C20 16.8975 20.7275 17.625 21.625 17.625Z" fill="#0D0F0D"/>
<path d="M10.375 17.625C11.2725 17.625 12 16.8975 12 16C12 15.1025 11.2725 14.375 10.375 14.375C9.47754 14.375 8.75 15.1025 8.75 16C8.75 16.8975 9.47754 17.625 10.375 17.625Z" fill="#0D0F0D"/>
<path fill-rule="evenodd" clip-rule="evenodd" d="M3 16C3 8.82272 8.82272 3 16 3C23.1773 3 29 8.82272 29 16C29 23.1773 23.1773 29 16 29C8.82272 29 3 23.1773 3 16ZM16 5C9.92728 5 5 9.92728 5 16C5 22.0727 9.92728 27 16 27C22.0727 27 27 22.0727 27 16C27 9.92728 22.0727 5 16 5Z" fill="#0D0F0D"/>
</svg>
