<svg width="50" height="50" viewBox="0 0 50 50" fill="none" xmlns="http://www.w3.org/2000/svg">
<g clip-path="url(#clip0_6002_7418)">
<path d="M20.3125 50C19.8187 50.0025 19.3359 49.8542 18.9286 49.575C18.5213 49.2958 18.2089 48.899 18.0332 48.4375L14.1425 38.3203C14.0637 38.1164 13.9432 37.9313 13.7886 37.7767C13.6341 37.6222 13.4489 37.5016 13.2451 37.4228L3.12496 33.5293C2.66397 33.3524 2.26746 33.0398 1.98777 32.6329C1.70808 32.2259 1.55835 31.7438 1.55835 31.25C1.55835 30.7562 1.70808 30.274 1.98777 29.8671C2.26746 29.4602 2.66397 29.1476 3.12496 28.9707L13.2421 25.0801C13.446 25.0013 13.6312 24.8807 13.7857 24.7262C13.9403 24.5716 14.0608 24.3865 14.1396 24.1826L18.0332 14.0625C18.2101 13.6015 18.5226 13.205 18.9296 12.9253C19.3365 12.6456 19.8187 12.4959 20.3125 12.4959C20.8062 12.4959 21.2884 12.6456 21.6953 12.9253C22.1023 13.205 22.4148 13.6015 22.5918 14.0625L26.4824 24.1797C26.5612 24.3835 26.6817 24.5687 26.8363 24.7232C26.9908 24.8778 27.176 24.9983 27.3798 25.0771L37.4384 28.9473C37.9182 29.1251 38.3315 29.4464 38.6221 29.8676C38.9127 30.2887 39.0665 30.7891 39.0625 31.3008C39.055 31.786 38.9021 32.2577 38.6235 32.655C38.345 33.0524 37.9535 33.3569 37.5 33.5293L27.3828 37.4199C27.1789 37.4987 26.9938 37.6193 26.8392 37.7738C26.6846 37.9284 26.5641 38.1135 26.4853 38.3174L22.5918 48.4375C22.416 48.899 22.1036 49.2958 21.6964 49.575C21.2891 49.8542 20.8063 50.0025 20.3125 50V50Z" fill="#C6FF2B"/>
<path d="M8.59369 17.1874C8.30419 17.1873 8.02149 17.0996 7.78284 16.9357C7.54418 16.7719 7.36077 16.5396 7.25677 16.2694L5.61029 11.9881C5.5746 11.8945 5.51953 11.8095 5.44867 11.7386C5.37782 11.6678 5.29279 11.6127 5.19916 11.577L0.917906 9.93052C0.647769 9.82649 0.415482 9.64307 0.251649 9.40441C0.0878153 9.16576 0.00012207 8.88308 0.00012207 8.5936C0.00012207 8.30413 0.0878153 8.02144 0.251649 7.78279C0.415482 7.54414 0.647769 7.36071 0.917906 7.25669L5.19916 5.6102C5.2927 5.57436 5.37764 5.51922 5.44848 5.44839C5.51931 5.37756 5.57444 5.29261 5.61029 5.19907L7.24213 0.955907C7.33415 0.706104 7.49252 0.486103 7.70019 0.319548C7.90787 0.152994 8.15701 0.0461823 8.42084 0.0105942C8.73758 -0.0279115 9.05812 0.040427 9.33162 0.204773C9.60511 0.369119 9.81592 0.620066 9.9306 0.917821L11.5771 5.19907C11.6129 5.29261 11.6681 5.37756 11.7389 5.44839C11.8097 5.51922 11.8947 5.57436 11.9882 5.6102L16.2695 7.25669C16.5396 7.36071 16.7719 7.54414 16.9357 7.78279C17.0996 8.02144 17.1873 8.30413 17.1873 8.5936C17.1873 8.88308 17.0996 9.16576 16.9357 9.40441C16.7719 9.64307 16.5396 9.82649 16.2695 9.93052L11.9882 11.577C11.8946 11.6127 11.8096 11.6678 11.7387 11.7386C11.6678 11.8095 11.6128 11.8945 11.5771 11.9881L9.9306 16.2694C9.8266 16.5396 9.64319 16.7719 9.40454 16.9357C9.16589 17.0996 8.88319 17.1873 8.59369 17.1874V17.1874Z" fill="#C6FF2B"/>
<path d="M39.0625 25C38.7467 24.9999 38.4383 24.9041 38.178 24.7252C37.9177 24.5464 37.7178 24.2928 37.6045 23.9981L35.374 18.2002C35.3348 18.098 35.2745 18.0053 35.1971 17.9279C35.1197 17.8505 35.0269 17.7902 34.9248 17.751L29.1269 15.5205C28.8324 15.407 28.5791 15.207 28.4005 14.9467C28.2218 14.6864 28.1262 14.3782 28.1262 14.0625C28.1262 13.7468 28.2218 13.4386 28.4005 13.1783C28.5791 12.918 28.8324 12.718 29.1269 12.6045L34.9248 10.374C35.0269 10.3348 35.1197 10.2745 35.1971 10.1971C35.2745 10.1198 35.3348 10.027 35.374 9.92481L37.5879 4.16797C37.6889 3.89574 37.8619 3.65599 38.0884 3.47423C38.3148 3.29247 38.5863 3.17549 38.874 3.13575C39.2196 3.09391 39.5694 3.16871 39.8676 3.34828C40.1659 3.52786 40.3957 3.80191 40.5205 4.12696L42.7509 9.92481C42.7902 10.027 42.8504 10.1198 42.9278 10.1971C43.0052 10.2745 43.098 10.3348 43.2002 10.374L48.998 12.6045C49.2926 12.718 49.5458 12.918 49.7245 13.1783C49.9031 13.4386 49.9987 13.7468 49.9987 14.0625C49.9987 14.3782 49.9031 14.6864 49.7245 14.9467C49.5458 15.207 49.2926 15.407 48.998 15.5205L43.2002 17.751C43.098 17.7902 43.0052 17.8505 42.9278 17.9279C42.8504 18.0053 42.7902 18.098 42.7509 18.2002L40.5205 23.9981C40.4072 24.2928 40.2072 24.5464 39.9469 24.7252C39.6866 24.9041 39.3783 24.9999 39.0625 25V25Z" fill="#C6FF2B"/>
</g>
<defs>
<clipPath id="clip0_6002_7418">
<rect width="50" height="50" fill="white"/>
</clipPath>
</defs>
</svg>
