<svg width="16" height="16" viewBox="0 0 16 16" fill="none" xmlns="http://www.w3.org/2000/svg">
<path d="M8.50004 14.5H7.50004C7.23483 14.5 6.98047 14.3946 6.79294 14.2071C6.6054 14.0196 6.50004 13.7652 6.50004 13.5L6.50161 10.8181C6.50164 10.7962 6.49589 10.7746 6.48493 10.7556C6.47397 10.7365 6.45819 10.7207 6.43919 10.7097C6.42018 10.6987 6.39861 10.6929 6.37665 10.6929C6.35469 10.6929 6.33312 10.6987 6.31411 10.7097L3.99098 12.0553C3.76505 12.1857 3.49655 12.2211 3.24455 12.1536C2.99256 12.0861 2.7777 11.9212 2.64723 11.6953L2.13161 10.8003L2.12973 10.7972C2.00278 10.5714 1.9695 10.3047 2.03706 10.0546C2.10461 9.80451 2.2676 9.5909 2.49098 9.45969L4.82254 8.10812C4.84149 8.09714 4.85721 8.08137 4.86814 8.06239C4.87907 8.04341 4.88482 8.0219 4.88482 8C4.88482 7.9781 4.87907 7.95659 4.86814 7.93761C4.85721 7.91863 4.84149 7.90286 4.82254 7.89187L2.49317 6.54156C2.38101 6.47725 2.28267 6.39141 2.20378 6.28898C2.12489 6.18655 2.06702 6.06955 2.03348 5.94469C1.99994 5.81983 1.9914 5.68957 2.00835 5.5614C2.02529 5.43323 2.06739 5.30967 2.13223 5.19781L2.64598 4.30562C2.7109 4.19283 2.79755 4.09404 2.90092 4.01497C3.00429 3.9359 3.12232 3.87813 3.24817 3.845C3.37259 3.81161 3.5024 3.80326 3.63007 3.82042C3.75774 3.83759 3.88074 3.87993 3.99192 3.945L6.31411 5.28875C6.33312 5.29973 6.35469 5.3055 6.37665 5.3055C6.39861 5.30549 6.42018 5.2997 6.43919 5.2887C6.45819 5.27771 6.47397 5.26191 6.48493 5.24288C6.49589 5.22385 6.50164 5.20227 6.50161 5.18031L6.50004 2.5C6.50004 2.23478 6.6054 1.98043 6.79294 1.79289C6.98047 1.60536 7.23483 1.5 7.50004 1.5H8.50004C8.76526 1.5 9.01961 1.60536 9.20715 1.79289C9.39469 1.98043 9.50004 2.23478 9.50004 2.5V5.17875C9.50001 5.20071 9.50576 5.22229 9.51672 5.24131C9.52768 5.26034 9.54346 5.27615 9.56246 5.28714C9.58147 5.29813 9.60304 5.30393 9.625 5.30393C9.64696 5.30394 9.66853 5.29817 9.68754 5.28719L12.0107 3.94156C12.2367 3.81138 12.5051 3.77617 12.757 3.84366C13.0089 3.91116 13.2238 4.07583 13.3544 4.30156L13.8697 5.19656L13.8716 5.19938C14 5.42544 14.0338 5.69311 13.9657 5.94401C13.8975 6.19491 13.733 6.40869 13.5079 6.53875L11.1788 7.88875C11.1599 7.89974 11.1441 7.91551 11.1332 7.93449C11.1223 7.95346 11.1165 7.97498 11.1165 7.99687C11.1165 8.01877 11.1223 8.04029 11.1332 8.05926C11.1441 8.07824 11.1599 8.09401 11.1788 8.105L13.5079 9.455C13.62 9.51932 13.7184 9.60515 13.7972 9.70757C13.8761 9.80999 13.934 9.92699 13.9676 10.0518C14.0012 10.1767 14.0097 10.3069 13.9928 10.4351C13.9759 10.5633 13.9339 10.6869 13.8691 10.7987L13.3554 11.6909C13.2904 11.8037 13.2038 11.9025 13.1004 11.9816C12.9971 12.0607 12.879 12.1184 12.7532 12.1516C12.6287 12.185 12.4989 12.1933 12.3713 12.1761C12.2436 12.159 12.1206 12.1166 12.0094 12.0516L9.68723 10.7078C9.66824 10.6968 9.64669 10.6911 9.62476 10.6911C9.60283 10.6911 9.58128 10.6968 9.56229 10.7078C9.54329 10.7187 9.52751 10.7345 9.51653 10.7535C9.50555 10.7725 9.49975 10.794 9.49973 10.8159L9.50004 13.5C9.50004 13.7652 9.39469 14.0196 9.20715 14.2071C9.01961 14.3946 8.76526 14.5 8.50004 14.5Z" fill="#0D0F0D"/>
</svg>
