<svg width="24" height="24" viewBox="0 0 24 24" fill="none" xmlns="http://www.w3.org/2000/svg">
<rect width="24" height="24" rx="12" fill="#212321"/>
<path d="M13.0606 12L16.0293 9.03121C16.1702 8.89056 16.2495 8.6997 16.2497 8.50062C16.2498 8.30154 16.1709 8.11054 16.0303 7.96965C15.8896 7.82875 15.6988 7.7495 15.4997 7.74932C15.3006 7.74914 15.1096 7.82806 14.9687 7.96871L12 10.9375L9.03121 7.96871C8.89031 7.82781 8.69922 7.74866 8.49996 7.74866C8.3007 7.74866 8.1096 7.82781 7.96871 7.96871C7.82781 8.1096 7.74866 8.3007 7.74866 8.49996C7.74866 8.69922 7.82781 8.89031 7.96871 9.03121L10.9375 12L7.96871 14.9687C7.82781 15.1096 7.74866 15.3007 7.74866 15.5C7.74866 15.6992 7.82781 15.8903 7.96871 16.0312C8.1096 16.1721 8.3007 16.2513 8.49996 16.2513C8.69922 16.2513 8.89031 16.1721 9.03121 16.0312L12 13.0625L14.9687 16.0312C15.1096 16.1721 15.3007 16.2513 15.5 16.2513C15.6992 16.2513 15.8903 16.1721 16.0312 16.0312C16.1721 15.8903 16.2513 15.6992 16.2513 15.5C16.2513 15.3007 16.1721 15.1096 16.0312 14.9687L13.0606 12Z" fill="white"/>
</svg>
