<svg width="16" height="16" viewBox="0 0 16 16" fill="none" xmlns="http://www.w3.org/2000/svg">
<path d="M9.06058 8.00032L12.0293 5.03157C12.1702 4.89093 12.2495 4.70007 12.2497 4.50099C12.2498 4.30191 12.1709 4.11091 12.0303 3.97001C11.8896 3.82912 11.6988 3.74986 11.4997 3.74969C11.3006 3.74951 11.1096 3.82843 10.9687 3.96907L7.99996 6.93782L5.03121 3.96907C4.89031 3.82818 4.69922 3.74902 4.49996 3.74902C4.3007 3.74902 4.1096 3.82818 3.96871 3.96907C3.82781 4.10997 3.74866 4.30107 3.74866 4.50032C3.74866 4.69958 3.82781 4.89068 3.96871 5.03157L6.93746 8.00032L3.96871 10.9691C3.82781 11.11 3.74866 11.3011 3.74866 11.5003C3.74866 11.6996 3.82781 11.8907 3.96871 12.0316C4.1096 12.1725 4.3007 12.2516 4.49996 12.2516C4.69922 12.2516 4.89031 12.1725 5.03121 12.0316L7.99996 9.06282L10.9687 12.0316C11.1096 12.1725 11.3007 12.2516 11.5 12.2516C11.6992 12.2516 11.8903 12.1725 12.0312 12.0316C12.1721 11.8907 12.2513 11.6996 12.2513 11.5003C12.2513 11.3011 12.1721 11.11 12.0312 10.9691L9.06058 8.00032Z" fill="#0D0F0D"/>
</svg>
