<svg width="20" height="20" viewBox="0 0 20 20" fill="none" xmlns="http://www.w3.org/2000/svg">
<path d="M18.7137 4.34966C18.7049 4.20998 18.6496 4.07727 18.5564 3.9728C18.4633 3.86833 18.3378 3.79814 18.2 3.77349C14.8395 3.17114 13.4254 2.70005 10.3906 1.33443C10.0875 1.22153 9.89963 1.22349 9.60939 1.33443C6.57463 2.70161 5.16056 3.17036 1.80002 3.77349C1.66225 3.79814 1.53674 3.86833 1.4436 3.9728C1.35047 4.07727 1.29509 4.20998 1.28635 4.34966C1.13595 6.73638 1.45588 8.95903 2.23791 10.9571C2.87737 12.5864 3.82471 14.0772 5.02814 15.3481C6.77306 17.2008 8.70783 18.2825 9.70549 18.6918C9.89466 18.769 10.1065 18.769 10.2957 18.6918C11.3504 18.2653 13.2133 17.2145 14.9719 15.3473C16.1752 14.0766 17.1226 12.5861 17.7621 10.9571C18.5442 8.95942 18.8641 6.73638 18.7137 4.34966Z" fill="white"/>
</svg>
