<svg width="16" height="16" viewBox="0 0 16 16" fill="none" xmlns="http://www.w3.org/2000/svg">
<g clip-path="url(#clip0_12187_8334)">
<path d="M6.50009 15.9999C6.34208 16.0007 6.18758 15.9532 6.05725 15.8639C5.92691 15.7745 5.82695 15.6475 5.77072 15.4999L4.52572 12.2624C4.5005 12.1971 4.46193 12.1379 4.41247 12.0884C4.36302 12.039 4.30377 12.0004 4.23853 11.9752L1.00009 10.7292C0.852577 10.6726 0.725694 10.5726 0.636193 10.4424C0.546692 10.3122 0.498779 10.1579 0.498779 9.99985C0.498779 9.84184 0.546692 9.68755 0.636193 9.55733C0.725694 9.42711 0.852577 9.32709 1.00009 9.27048L4.23759 8.02548C4.30283 8.00026 4.36208 7.96169 4.41154 7.91223C4.46099 7.86277 4.49957 7.80353 4.52478 7.73829L5.77072 4.49985C5.82734 4.35233 5.92735 4.22545 6.05757 4.13595C6.18779 4.04645 6.34208 3.99854 6.50009 3.99854C6.6581 3.99854 6.8124 4.04645 6.94262 4.13595C7.07283 4.22545 7.17285 4.35233 7.22947 4.49985L8.47447 7.73735C8.49968 7.80259 8.53826 7.86184 8.58771 7.91129C8.63717 7.96075 8.69642 7.99932 8.76166 8.02454L11.9804 9.26298C12.1339 9.31988 12.2662 9.42271 12.3592 9.55747C12.4522 9.69223 12.5014 9.85238 12.5001 10.0161C12.4977 10.1714 12.4488 10.3223 12.3596 10.4495C12.2705 10.5766 12.1452 10.6741 12.0001 10.7292L8.76259 11.9742C8.69736 11.9994 8.63811 12.038 8.58865 12.0875C8.5392 12.1369 8.50062 12.1962 8.47541 12.2614L7.22947 15.4999C7.17324 15.6475 7.07327 15.7745 6.94294 15.8639C6.81261 15.9532 6.65811 16.0007 6.50009 15.9999V15.9999Z" fill="#C6FF2B"/>
<path d="M2.74994 5.49991C2.6573 5.49991 2.56684 5.47184 2.49047 5.4194C2.4141 5.36696 2.35541 5.29262 2.32213 5.20616L1.79525 3.83616C1.78383 3.8062 1.76621 3.77899 1.74354 3.75632C1.72086 3.73364 1.69365 3.71602 1.66369 3.7046L0.293691 3.17773C0.207247 3.14444 0.132915 3.08574 0.0804885 3.00937C0.0280618 2.933 0 2.84255 0 2.74991C0 2.65728 0.0280618 2.56682 0.0804885 2.49045C0.132915 2.41408 0.207247 2.35539 0.293691 2.3221L1.66369 1.79523C1.69362 1.78375 1.72081 1.76611 1.74347 1.74345C1.76614 1.72078 1.78378 1.6936 1.79525 1.66366L2.31744 0.305851C2.34689 0.225914 2.39757 0.155514 2.46402 0.102216C2.53048 0.0489189 2.6102 0.0147393 2.69463 0.00335107C2.79599 -0.00897073 2.89856 0.0128976 2.98608 0.0654883C3.0736 0.118079 3.14105 0.198382 3.17775 0.293664L3.70463 1.66366C3.7161 1.6936 3.73374 1.72078 3.75641 1.74345C3.77908 1.76611 3.80626 1.78375 3.83619 1.79523L5.20619 2.3221C5.29264 2.35539 5.36697 2.41408 5.41939 2.49045C5.47182 2.56682 5.49988 2.65728 5.49988 2.74991C5.49988 2.84255 5.47182 2.933 5.41939 3.00937C5.36697 3.08574 5.29264 3.14444 5.20619 3.17773L3.83619 3.7046C3.80623 3.71602 3.77902 3.73364 3.75635 3.75632C3.73367 3.77899 3.71605 3.8062 3.70463 3.83616L3.17775 5.20616C3.14447 5.29262 3.08578 5.36696 3.00941 5.4194C2.93304 5.47184 2.84258 5.49991 2.74994 5.49991V5.49991Z" fill="#C6FF2B"/>
<path d="M12.5001 8.00019C12.399 8.00016 12.3003 7.9695 12.2171 7.91226C12.1338 7.85503 12.0698 7.7739 12.0335 7.67956L11.3198 5.82425C11.3072 5.79156 11.2879 5.76187 11.2632 5.7371C11.2384 5.71234 11.2087 5.69306 11.176 5.6805L9.32071 4.96675C9.22645 4.93043 9.14541 4.86641 9.08825 4.78313C9.03108 4.69984 9.00049 4.6012 9.00049 4.50019C9.00049 4.39917 9.03108 4.30053 9.08825 4.21724C9.14541 4.13396 9.22645 4.06994 9.32071 4.03362L11.176 3.31987C11.2087 3.30732 11.2384 3.28803 11.2632 3.26327C11.2879 3.23851 11.3072 3.20882 11.3198 3.17612L12.0282 1.33394C12.0606 1.24682 12.1159 1.1701 12.1884 1.11194C12.2608 1.05378 12.3477 1.01634 12.4398 1.00362C12.5504 0.990235 12.6623 1.01417 12.7577 1.07164C12.8532 1.1291 12.9267 1.2168 12.9666 1.32081L13.6804 3.17612C13.693 3.20882 13.7122 3.23851 13.737 3.26327C13.7618 3.28803 13.7915 3.30732 13.8241 3.31987L15.6795 4.03362C15.7737 4.06994 15.8548 4.13396 15.9119 4.21724C15.9691 4.30053 15.9997 4.39917 15.9997 4.50019C15.9997 4.6012 15.9691 4.69984 15.9119 4.78313C15.8548 4.86641 15.7737 4.93043 15.6795 4.96675L13.8241 5.6805C13.7915 5.69306 13.7618 5.71234 13.737 5.7371C13.7122 5.76187 13.693 5.79156 13.6804 5.82425L12.9666 7.67956C12.9304 7.7739 12.8664 7.85503 12.7831 7.91226C12.6998 7.9695 12.6011 8.00016 12.5001 8.00019V8.00019Z" fill="#C6FF2B"/>
</g>
<defs>
<clipPath id="clip0_12187_8334">
<rect width="16" height="16" fill="white"/>
</clipPath>
</defs>
</svg>
