<svg width="80" height="80" viewBox="0 0 80 80" fill="none" xmlns="http://www.w3.org/2000/svg">
<rect width="80" height="80" rx="40" fill="#212321"/>
<path d="M41.5 41.5L49.8968 41.5C50.295 41.5004 50.677 41.3426 50.9588 41.0613C51.2406 40.78 51.3991 40.3982 51.3994 40.0001C51.3998 39.6019 51.242 39.2199 50.9607 38.9381C50.6794 38.6563 50.2977 38.4978 49.8995 38.4975H41.5026L41.5026 30.1006C41.5026 29.7021 41.3443 29.3199 41.0625 29.0381C40.7807 28.7563 40.3985 28.598 40 28.598C39.6015 28.598 39.2193 28.7563 38.9375 29.0381C38.6557 29.3199 38.4974 29.7021 38.4974 30.1006L38.4974 38.4975H30.1005C29.702 38.4975 29.3198 38.6558 29.038 38.9376C28.7562 39.2194 28.5979 39.6016 28.5979 40.0001C28.5979 40.3986 28.7562 40.7808 29.038 41.0626C29.3198 41.3444 29.702 41.5027 30.1005 41.5027L38.4974 41.5027V49.8996C38.4974 50.2981 38.6557 50.6803 38.9375 50.9621C39.2193 51.2439 39.6015 51.4022 40 51.4022C40.3985 51.4022 40.7807 51.2439 41.0625 50.9621C41.3443 50.6803 41.5026 50.2981 41.5026 49.8996L41.5 41.5Z" fill="white"/>
</svg>
