<svg width="24" height="24" viewBox="0 0 24 24" fill="none" xmlns="http://www.w3.org/2000/svg">
<g clip-path="url(#clip0_6001_3006)">
<path d="M9.75002 24C9.513 24.0012 9.28125 23.9301 9.08575 23.796C8.89025 23.662 8.74031 23.4715 8.65596 23.25L6.78846 18.3938C6.75063 18.2959 6.69277 18.207 6.61859 18.1329C6.5444 18.0587 6.45553 18.0008 6.35768 17.963L1.50002 16.0941C1.27874 16.0092 1.08842 15.8591 0.954167 15.6638C0.819915 15.4685 0.748047 15.237 0.748047 15C0.748047 14.763 0.819915 14.5316 0.954167 14.3362C1.08842 14.1409 1.27874 13.9909 1.50002 13.906L6.35627 12.0385C6.45413 12.0006 6.543 11.9428 6.61718 11.8686C6.69137 11.7944 6.74923 11.7055 6.78705 11.6077L8.65596 6.75002C8.74088 6.52874 8.89091 6.33842 9.08624 6.20417C9.28156 6.06992 9.51301 5.99805 9.75002 5.99805C9.98703 5.99805 10.2185 6.06992 10.4138 6.20417C10.6091 6.33842 10.7592 6.52874 10.8441 6.75002L12.7116 11.6063C12.7494 11.7041 12.8073 11.793 12.8814 11.8672C12.9556 11.9414 13.0445 11.9992 13.1424 12.0371L17.9705 13.8947C18.2008 13.9801 18.3992 14.1343 18.5386 14.3365C18.6781 14.5386 18.7519 14.7788 18.75 15.0244C18.7464 15.2573 18.673 15.4837 18.5393 15.6744C18.4056 15.8652 18.2177 16.0113 18 16.0941L13.1438 17.9616C13.0459 17.9994 12.957 18.0573 12.8829 18.1314C12.8087 18.2056 12.7508 18.2945 12.713 18.3924L10.8441 23.25C10.7597 23.4715 10.6098 23.662 10.4143 23.796C10.2188 23.9301 9.98704 24.0012 9.75002 24V24Z" fill="#0D0F0D"/>
<path d="M4.12503 8.24987C3.98608 8.24986 3.85038 8.20776 3.73582 8.1291C3.62127 8.05044 3.53323 7.93893 3.48331 7.80925L2.693 5.75425C2.67587 5.7093 2.64944 5.66849 2.61543 5.63448C2.58142 5.60047 2.5406 5.57403 2.49566 5.5569L0.440659 4.76659C0.310992 4.71666 0.199495 4.62861 0.120855 4.51406C0.0422148 4.39951 0.00012207 4.26382 0.00012207 4.12487C0.00012207 3.98592 0.0422148 3.85023 0.120855 3.73568C0.199495 3.62113 0.310992 3.53308 0.440659 3.48315L2.49566 2.69284C2.54056 2.67563 2.58133 2.64917 2.61533 2.61517C2.64933 2.58117 2.6758 2.54039 2.693 2.4955L3.47628 0.458777C3.52046 0.338871 3.59647 0.233271 3.69616 0.153325C3.79584 0.0733783 3.91543 0.0221089 4.04207 0.00502661C4.1941 -0.0134561 4.34796 0.0193464 4.47924 0.0982325C4.61052 0.177119 4.7117 0.297573 4.76675 0.440495L5.55707 2.4955C5.57427 2.54039 5.60074 2.58117 5.63474 2.61517C5.66873 2.64917 5.70951 2.67563 5.75441 2.69284L7.80941 3.48315C7.93907 3.53308 8.05057 3.62113 8.12921 3.73568C8.20785 3.85023 8.24994 3.98592 8.24994 4.12487C8.24994 4.26382 8.20785 4.39951 8.12921 4.51406C8.05057 4.62861 7.93907 4.71666 7.80941 4.76659L5.75441 5.5569C5.70947 5.57403 5.66865 5.60047 5.63464 5.63448C5.60063 5.66849 5.57419 5.7093 5.55707 5.75425L4.76675 7.80925C4.71683 7.93893 4.6288 8.05044 4.51424 8.1291C4.39969 8.20776 4.26399 8.24986 4.12503 8.24987V8.24987Z" fill="#0D0F0D"/>
<path d="M18.75 11.9998C18.5984 11.9997 18.4504 11.9538 18.3255 11.8679C18.2005 11.7821 18.1045 11.6604 18.0502 11.5189L16.9795 8.73589C16.9607 8.68685 16.9318 8.64231 16.8946 8.60517C16.8575 8.56802 16.813 8.53909 16.7639 8.52026L13.9809 7.44964C13.8396 7.39516 13.718 7.29913 13.6322 7.1742C13.5465 7.04928 13.5006 6.90131 13.5006 6.74979C13.5006 6.59827 13.5465 6.4503 13.6322 6.32538C13.718 6.20045 13.8396 6.10443 13.9809 6.04995L16.7639 4.97932C16.813 4.96049 16.8575 4.93156 16.8946 4.89442C16.9318 4.85727 16.9607 4.81274 16.9795 4.7637L18.0422 2.00042C18.0907 1.86974 18.1737 1.75466 18.2824 1.66742C18.3911 1.58017 18.5215 1.52403 18.6595 1.50495C18.8255 1.48486 18.9933 1.52077 19.1365 1.60697C19.2797 1.69316 19.39 1.82471 19.4499 1.98073L20.5205 4.7637C20.5393 4.81274 20.5682 4.85727 20.6054 4.89442C20.6425 4.93156 20.6871 4.96049 20.7361 4.97932L23.5191 6.04995C23.6605 6.10443 23.782 6.20045 23.8678 6.32538C23.9535 6.4503 23.9994 6.59827 23.9994 6.74979C23.9994 6.90131 23.9535 7.04928 23.8678 7.1742C23.782 7.29913 23.6605 7.39516 23.5191 7.44964L20.7361 8.52026C20.6871 8.53909 20.6425 8.56802 20.6054 8.60517C20.5682 8.64231 20.5393 8.68685 20.5205 8.73589L19.4499 11.5189C19.3955 11.6604 19.2995 11.7821 19.1746 11.8679C19.0496 11.9538 18.9016 11.9997 18.75 11.9998V11.9998Z" fill="#0D0F0D"/>
</g>
<defs>
<clipPath id="clip0_6001_3006">
<rect width="24" height="24" fill="white"/>
</clipPath>
</defs>
</svg>
