<svg width="32" height="32" viewBox="0 0 32 32" fill="none" xmlns="http://www.w3.org/2000/svg">
<rect x="32" y="1.39876e-06" width="32" height="32" rx="16" transform="rotate(90 32 1.39876e-06)" fill="#C6FF2B"/>
<path fill-rule="evenodd" clip-rule="evenodd" d="M22.2879 16.1942C21.9218 16.5603 21.3282 16.5603 20.9621 16.1942L16 11.2321L11.0379 16.1942C10.6718 16.5603 10.0782 16.5603 9.71209 16.1942C9.34597 15.828 9.34597 15.2345 9.71209 14.8683L15.3371 9.24334C15.7032 8.87722 16.2968 8.87722 16.6629 9.24334L22.2879 14.8683C22.654 15.2345 22.654 15.828 22.2879 16.1942Z" fill="#0D0F0D"/>
<path fill-rule="evenodd" clip-rule="evenodd" d="M16 9.75C16.5178 9.75 16.9375 10.1697 16.9375 10.6875L16.9375 22.0938C16.9375 22.6115 16.5178 23.0313 16 23.0313C15.4822 23.0313 15.0625 22.6115 15.0625 22.0938L15.0625 10.6875C15.0625 10.1697 15.4822 9.75 16 9.75Z" fill="#0D0F0D"/>
</svg>
