<svg width="48" height="48" viewBox="0 0 48 48" fill="none" xmlns="http://www.w3.org/2000/svg">
<rect width="48" height="48" rx="24" fill="#212321"/>
<path d="M25.3258 23.9999L29.0368 20.289C29.2129 20.1132 29.3119 19.8746 29.3122 19.6257C29.3124 19.3769 29.2137 19.1381 29.0379 18.962C28.8621 18.7859 28.6235 18.6868 28.3747 18.6866C28.1258 18.6864 27.8871 18.785 27.711 18.9609L24 22.6718L20.2891 18.9609C20.113 18.7847 19.8741 18.6858 19.625 18.6858C19.376 18.6858 19.1371 18.7847 18.961 18.9609C18.7849 19.137 18.6859 19.3758 18.6859 19.6249C18.6859 19.874 18.7849 20.1129 18.961 20.289L22.6719 23.9999L18.961 27.7109C18.7849 27.887 18.6859 28.1258 18.6859 28.3749C18.6859 28.624 18.7849 28.8629 18.961 29.039C19.1371 29.2151 19.376 29.314 19.625 29.314C19.8741 29.314 20.113 29.2151 20.2891 29.039L24 25.328L27.711 29.039C27.8871 29.2151 28.126 29.314 28.375 29.314C28.6241 29.314 28.863 29.2151 29.0391 29.039C29.2152 28.8629 29.3142 28.624 29.3142 28.3749C29.3142 28.1258 29.2152 27.887 29.0391 27.7109L25.3258 23.9999Z" fill="white"/>
</svg>
