<svg width="20" height="20" viewBox="0 0 20 20" fill="none" xmlns="http://www.w3.org/2000/svg">
<path d="M3.37411 4.83514L6.54495 7.62514L9.36995 4.14681C9.44905 4.04957 9.54908 3.97143 9.66257 3.9182C9.77606 3.86498 9.9001 3.83804 10.0254 3.8394C10.1508 3.84077 10.2742 3.87039 10.3865 3.92607C10.4988 3.98174 10.5971 4.06204 10.6741 4.16098L13.3699 7.62431L16.6433 4.79431C16.7718 4.6834 16.9312 4.6144 17.1 4.59654C17.2689 4.57869 17.4391 4.61283 17.588 4.69439C17.7369 4.77596 17.8574 4.90105 17.9332 5.05295C18.0091 5.20484 18.0367 5.37627 18.0124 5.54431L16.7624 14.1668H3.26828L1.99911 5.58348C1.9739 5.41451 2.00124 5.24187 2.07741 5.08895C2.15358 4.93603 2.27491 4.81022 2.42496 4.72855C2.57502 4.64688 2.74655 4.61331 2.91633 4.63237C3.0861 4.65144 3.24591 4.72223 3.37411 4.83514ZM3.33328 15.0001H16.6666V15.8335C16.6666 16.0545 16.5788 16.2665 16.4225 16.4227C16.2663 16.579 16.0543 16.6668 15.8333 16.6668H4.16661C3.9456 16.6668 3.73364 16.579 3.57736 16.4227C3.42108 16.2665 3.33328 16.0545 3.33328 15.8335V15.0001Z" fill="#0D0F0D"/>
</svg>
