<svg width="24" height="24" viewBox="0 0 24 24" fill="none" xmlns="http://www.w3.org/2000/svg">
<path d="M17.625 8.25H12.75V15.0469C12.75 15.2458 12.671 15.4366 12.5303 15.5772C12.3897 15.7179 12.1989 15.7969 12 15.7969C11.8011 15.7969 11.6103 15.7179 11.4697 15.5772C11.329 15.4366 11.25 15.2458 11.25 15.0469V8.25H6.375C5.67904 8.25074 5.01179 8.52754 4.51967 9.01967C4.02755 9.51179 3.75074 10.179 3.75 10.875V19.875C3.75074 20.571 4.02755 21.2382 4.51967 21.7303C5.01179 22.2225 5.67904 22.4993 6.375 22.5H17.625C18.321 22.4993 18.9882 22.2225 19.4803 21.7303C19.9725 21.2382 20.2493 20.571 20.25 19.875V10.875C20.2493 10.179 19.9725 9.51179 19.4803 9.01967C18.9882 8.52754 18.321 8.25074 17.625 8.25Z" fill="white"/>
<path d="M12.75 4.06092L15.2198 6.5303C15.3616 6.66501 15.5505 6.73901 15.746 6.7365C15.9416 6.734 16.1285 6.65519 16.2668 6.51689C16.4051 6.37859 16.4839 6.19174 16.4864 5.99616C16.4889 5.80059 16.4149 5.61178 16.2802 5.46998L12.5302 1.71998C12.3895 1.57944 12.1988 1.50049 12 1.50049C11.8012 1.50049 11.6105 1.57944 11.4698 1.71998L7.71985 5.46998C7.58513 5.61178 7.51114 5.80059 7.51364 5.99616C7.51615 6.19174 7.59495 6.37859 7.73325 6.51689C7.87155 6.65519 8.05841 6.734 8.25398 6.7365C8.44955 6.73901 8.63836 6.66501 8.78016 6.5303L11.25 4.06092V8.25014H12.75V4.06092Z" fill="white"/>
</svg>
